<?xml version="1.0" encoding="UTF-8" standalone="no"?>
<!DOCTYPE svg PUBLIC "-//W3C//DTD SVG 1.1//EN" "http://www.w3.org/Graphics/SVG/1.1/DTD/svg11.dtd">
<svg version="1.1" xmlns="http://www.w3.org/2000/svg" xmlns:xlink="http://www.w3.org/1999/xlink" preserveAspectRatio="xMidYMid meet" viewBox="0 0 640 640" width="640" height="640"><defs><path d="M475.78 170.53L425.51 170.53C425.51 140.64 425.51 124.03 425.51 120.71C425.51 109.49 416.04 100.36 404.41 100.36C387.53 100.36 252.47 100.36 235.59 100.36C223.96 100.36 214.49 109.49 214.49 120.71C214.49 124.03 214.49 140.64 214.49 170.53L164.22 170.53C164.22 140.64 164.22 124.03 164.22 120.71C164.22 82.76 196.24 51.89 235.59 51.89C252.47 51.89 387.53 51.89 404.41 51.89C443.76 51.89 475.78 82.76 475.78 120.71C475.78 127.35 475.78 143.96 475.78 170.53Z" id="clYXvsiAQ"></path><linearGradient id="gradienta1ffr1NlRr" gradientUnits="userSpaceOnUse" x1="299.36" y1="117.39" x2="226.13" y2="11.92"><stop style="stop-color: #bdbdbd;stop-opacity: 1" offset="0%"></stop><stop style="stop-color: #efefef;stop-opacity: 1" offset="100%"></stop></linearGradient><path d="M50.54 560.88C22.63 560.88 0 539.06 0 512.15C0 480.02 0 223.01 0 190.89C0 163.98 22.63 142.16 50.54 142.16C104.43 142.16 535.57 142.16 589.46 142.16C617.37 142.16 640 163.98 640 190.89C640 223.01 640 480.02 640 512.15C640 539.06 617.38 560.88 589.46 560.88C481.68 560.88 104.43 560.88 50.54 560.88Z" id="afyT9Jy7S"></path><linearGradient id="gradienta28Z3qbAkE" gradientUnits="userSpaceOnUse" x1="261.89" y1="186.73" x2="438.7" y2="688.13"><stop style="stop-color: #de3f24;stop-opacity: 1" offset="0%"></stop><stop style="stop-color: #820c02;stop-opacity: 1" offset="100%"></stop></linearGradient><path d="M320 210.98C239.5 210.98 174.25 273.9 174.25 351.52C174.25 429.13 239.5 492.05 320 492.05C400.5 492.05 465.75 429.13 465.75 351.52C465.75 273.9 400.5 210.98 320 210.98Z" id="c9kIcHafA"></path><linearGradient id="gradientb1qyQjLeZM" gradientUnits="userSpaceOnUse" x1="231.97" y1="266.64" x2="435.4" y2="462.79"><stop style="stop-color: #f8f6fb;stop-opacity: 1" offset="0%"></stop><stop style="stop-color: #fbdcdc;stop-opacity: 1" offset="100%"></stop></linearGradient><path d="M352.43 382.79C352.43 407.87 352.43 421.81 352.43 424.6C352.43 430.78 347.24 435.79 340.83 435.79C336.66 435.79 303.34 435.79 299.18 435.79C292.76 435.79 287.57 430.78 287.57 424.6C287.57 421.81 287.57 407.87 287.57 382.79C261.55 382.79 247.1 382.79 244.21 382.79C237.8 382.79 232.6 377.78 232.6 371.6C232.6 367.58 232.6 335.45 232.6 331.44C232.6 325.26 237.8 320.24 244.21 320.24C247.1 320.24 261.55 320.24 287.57 320.24C287.57 295.16 287.57 281.22 287.57 278.44C287.57 272.26 292.76 267.24 299.18 267.24C303.34 267.24 336.66 267.24 340.83 267.24C347.24 267.24 352.43 272.26 352.43 278.44C352.43 281.22 352.43 295.16 352.43 320.24C378.45 320.24 392.9 320.24 395.79 320.24C402.2 320.24 407.4 325.26 407.4 331.44C407.4 335.45 407.4 367.58 407.4 371.6C407.4 377.78 402.2 382.79 395.79 382.79C390.01 382.79 375.56 382.79 352.43 382.79Z" id="ahkRCSBF5"></path><linearGradient id="gradientb5XxHQPhbS" gradientUnits="userSpaceOnUse" x1="271.73" y1="304.97" x2="383.28" y2="412.53"><stop style="stop-color: #de3f24;stop-opacity: 1" offset="0%"></stop><stop style="stop-color: #820c02;stop-opacity: 1" offset="100%"></stop></linearGradient></defs><g><g><g><use xlink:href="#clYXvsiAQ" opacity="1" fill="url(#gradienta1ffr1NlRr)"></use><g><use xlink:href="#clYXvsiAQ" opacity="1" fill-opacity="0" stroke="#000000" stroke-width="1" stroke-opacity="0"></use></g></g><g><use xlink:href="#afyT9Jy7S" opacity="1" fill="url(#gradienta28Z3qbAkE)"></use><g><use xlink:href="#afyT9Jy7S" opacity="1" fill-opacity="0" stroke="#000000" stroke-width="1" stroke-opacity="0"></use></g></g><g><use xlink:href="#c9kIcHafA" opacity="1" fill="url(#gradientb1qyQjLeZM)"></use><g><use xlink:href="#c9kIcHafA" opacity="1" fill-opacity="0" stroke="#000000" stroke-width="1" stroke-opacity="0"></use></g></g><g><use xlink:href="#ahkRCSBF5" opacity="1" fill="url(#gradientb5XxHQPhbS)"></use><g><use xlink:href="#ahkRCSBF5" opacity="1" fill-opacity="0" stroke="#000000" stroke-width="1" stroke-opacity="0"></use></g></g></g></g></svg>